0
SECTION
2
HEADER
9
$INSUNITS
70
4
9
$ACADVER
1
AC1014
9
$HANDSEED
5
FFFF
0
ENDSEC
0
SECTION
2
TABLES
0
TABLE
2
VPORT
5
8
100
AcDbSymbolTable
0
ENDTAB
0
TABLE
2
LTYPE
5
5
100
AcDbSymbolTable
0
LTYPE
5
14
100
AcDbSymbolTableRecord
100
AcDbLinetypeTableRecord
2
BYBLOCK
70
0
0
LTYPE
5
15
100
AcDbSymbolTableRecord
100
AcDbLinetypeTableRecord
2
BYLAYER
70
0
0
ENDTAB
0
TABLE
2
LAYER
5
2
100
AcDbSymbolTable
70
2
0
LAYER
5
50
100
AcDbSymbolTableRecord
100
AcDbLayerTableRecord
2
0
70
0
6
CONTINUOUS
0
ENDTAB
0
TABLE
2
STYLE
5
3
100
AcDbSymbolTable
70
1
0
STYLE
5
11
100
AcDbSymbolTableRecord
100
AcDbTextStyleTableRecord
2
STANDARD
70
0
0
ENDTAB
0
TABLE
2
VIEW
5
6
100
AcDbSymbolTable
70
0
0
ENDTAB
0
TABLE
2
UCS
5
7
100
AcDbSymbolTable
70
0
0
ENDTAB
0
TABLE
2
APPID
5
9
100
AcDbSymbolTable
70
2
0
APPID
5
12
100
AcDbSymbolTableRecord
100
AcDbRegAppTableRecord
2
ACAD
70
0
0
ENDTAB
0
TABLE
2
DIMSTYLE
5
A
100
AcDbSymbolTable
70
1
0
ENDTAB
0
TABLE
2
BLOCK_RECORD
5
1
100
AcDbSymbolTable
70
1
0
BLOCK_RECORD
5
1F
100
AcDbSymbolTableRecord
100
AcDbBlockTableRecord
2
*MODEL_SPACE
0
BLOCK_RECORD
5
1B
100
AcDbSymbolTableRecord
100
AcDbBlockTableRecord
2
*PAPER_SPACE
0
ENDTAB
0
ENDSEC
0
SECTION
2
BLOCKS
0
BLOCK
5
20
100
AcDbEntity
100
AcDbBlockBegin
2
*MODEL_SPACE
0
ENDBLK
5
21
100
AcDbEntity
100
AcDbBlockEnd
0
BLOCK
5
1C
100
AcDbEntity
100
AcDbBlockBegin
2
*PAPER_SPACE
0
ENDBLK
5
1D
100
AcDbEntity
100
AcDbBlockEnd
0
ENDSEC
0
SECTION
2
ENTITIES
0
LWPOLYLINE
5
100
100
AcDbEntity
8
0
100
AcDbPolyline
90
4
70
1
43
0.0
10
1.4849242404917518
20
3.4766083408338528
10
-1.0606601717798307
20
6.0221927531054398
10
-5.0204581464245077
20
2.0623947784607588
10
-2.4748737341529248
20
-0.48318963381083102
0
LWPOLYLINE
5
101
100
AcDbEntity
8
0
100
AcDbPolyline
90
4
70
1
43
0.0
10
2.0623947784607761
20
-5.0204581464245024
10
6.0221927531054416
20
-1.0606601717798347
10
3.4766083408338648
20
1.4849242404917407
10
-0.48318963381079605
20
-2.4748737341529328
0
LWPOLYLINE
5
102
100
AcDbEntity
8
0
100
AcDbPolyline
90
26
70
1
43
0.0
10
0.20000000000004459
20
339.99994117646554
10
0.20000000000000351
20
5.3272180062748404
10
2.0506096654409904
20
3.4766083408338515
10
-2.4748737341529252
20
-1.0488750587600704
10
-2.8873526898450819
20
-0.63639610306791106
10
-6.6409111866436543
20
-4.3899545998664706
10
-4.389954599866484
20
-6.6409111866436525
10
-0.63639610306789562
20
-2.887352689845073
10
-1.0488750587600348
20
-2.4748737341529337
10
3.4766083408338631
20
2.0506096654409776
10
5.3272180062748475
20
0.20000000000000018
10
339.99994117646554
20
0.19999999998639484
42
-0.00014705883306039252
10
340
20
0
10
340
20
-0.20000000000000018
10
5.7272180062748461
20
-0.20000000000000018
10
6.5878781780546802
20
-1.0606601717798347
10
2.0623947784607761
20
-5.5861435713737428
10
-0.3535533905932764
20
-3.1701954023196919
10
-4.3899545998664857
20
-7.2065966115928903
10
-7.2065966115928903
20
-4.3899545998664706
10
-3.1701954023197008
20
-0.35355339059329305
10
-5.5861435713737464
20
2.0623947784607601
10
-1.0606601717798321
20
6.5878781780546785
10
-0.19999999999999712
20
5.727218006274839
10
-0.19999999999995563
20
340
10
1.3649741059662546e-11
20
340
42
-0.00014705883306039252
0
LWPOLYLINE
5
103
100
AcDbEntity
8
0
100
AcDbPolyline
90
4
70
1
43
0.0
10
-59.999999999999993
20
0
10
-2.0818995585505004e-14
20
340
42
-0.41421356237309503
10
340
20
0
10
1.6996616692943936e-14
20
-59.999999999999993
42
-0.41421356237309509
0
LWPOLYLINE
5
104
100
AcDbEntity
8
0
100
AcDbPolyline
90
4
70
1
43
0.0
10
-3.0000000000000022
20
126.02174807553553
10
-2.9999999999999982
20
12.64911064067352
42
1.7914044826714324
10
12.64911064067352
20
-2.9999999999999982
10
126.02174807553556
20
-2.9999999999999538
42
0.75094673819453672
0
CIRCLE
5
105
100
AcDbEntity
8
0
100
AcDbCircle
10
41.719300090006293
20
41.719300090006321
30
0
40
9.0000000000000036
210
0
220
0
230
1
0
LWPOLYLINE
5
106
100
AcDbEntity
8
0
100
AcDbPolyline
90
8
70
1
43
0.0
10
2.9999999999999982
20
12.64911064067352
10
2.9999999999999987
20
77.350889359326487
42
0.28351479965885856
10
12.64911064067352
20
87
10
77.350889359326487
20
86.999999999999972
42
0.2835147996588599
10
87
20
77.350889359326487
10
87
20
12.649110640673504
42
0.28351479965885901
10
77.350889359326501
20
3.0000000000000027
10
12.649110640673516
20
3.0000000000000138
42
0.2835147996588589
0
LWPOLYLINE
5
107
100
AcDbEntity
8
0
100
AcDbPolyline
90
4
70
1
43
0.0
10
42.426406871192874
20
43.840620433565924
10
43.840620433565931
20
42.426406871192796
10
43.487067042972647
20
42.072853480599534
10
42.072853480599591
20
43.487067042972654
0
LWPOLYLINE
5
108
100
AcDbEntity
8
0
100
AcDbPolyline
90
5
70
1
43
0.0
10
2.2204460492503131e-15
20
0
10
2.2204460492503131e-15
20
1.0017346066809329
10
0.50086730334047314
20
1.5026019100214043
10
1.5026019100214161
20
0.50086730334046226
10
1.0017346066809465
20
-1.0627458114947087e-14
0
LWPOLYLINE
5
109
100
AcDbEntity
8
0
100
AcDbPolyline
90
4
70
1
43
0.0
10
88.75
20
1.2500000000000111
10
90
20
1.2500000000000111
10
90
20
1.1102230246251565e-14
10
88.75
20
1.1102230246251565e-14
0
LWPOLYLINE
5
110
100
AcDbEntity
8
0
100
AcDbPolyline
90
4
70
1
43
0.0
10
89.374999999999943
20
90.624999999999972
10
90.624999999999943
20
90.624999999999972
10
90.624999999999943
20
89.374999999999972
10
89.374999999999943
20
89.374999999999972
0
LWPOLYLINE
5
111
100
AcDbEntity
8
0
100
AcDbPolyline
90
4
70
1
43
0.0
10
1.2499999999999867
20
88.750000000000014
10
-1.3322676295501878e-14
20
88.750000000000014
10
-1.3322676295501878e-14
20
90.000000000000014
10
1.2499999999999867
20
90.000000000000014
0
LWPOLYLINE
5
112
100
AcDbEntity
8
0
100
AcDbPolyline
90
4
70
1
43
0.0
10
-75
20
355
10
355
20
355
10
355
20
-75
10
-75
20
-75
0
LWPOLYLINE
5
113
100
AcDbEntity
8
0
100
AcDbPolyline
90
4
70
1
43
0.0
10
3.1086244689504371e-14
20
-59.999999999999986
42
-0.4142135623730952
10
-59.999999999999993
20
0
10
-8.8817841970012523e-15
20
340
42
-0.41421356237309503
10
340
20
-1.7763568394002505e-14
0
LWPOLYLINE
5
114
100
AcDbEntity
8
0
100
AcDbPolyline
90
4
70
1
43
0.0
10
-74.987193099132071
20
1.3859549464108056
10
-12.624339506443397
20
354.77545863831409
42
-0.43520626935015028
10
354.77545863831403
20
-12.624339506443452
10
1.3859549464121477
20
-74.987193099132043
42
-0.42508106390876887
0
CIRCLE
5
115
100
AcDbEntity
8
0
100
AcDbCircle
10
-35.355339059327385
20
16.970562748477157
30
0
40
2.2999999999999998
210
0
220
0
230
1
0
CIRCLE
5
116
100
AcDbEntity
8
0
100
AcDbCircle
10
-35.355339059327385
20
16.970562748477157
30
0
40
2.7000000000000002
210
0
220
-0
230
1
0
LWPOLYLINE
5
117
100
AcDbEntity
8
0
100
AcDbPolyline
90
8
70
1
43
0.0
10
-19.999999999999979
20
89.800000000000026
10
-19.999999999999979
20
90.200000000000017
10
-14.799999999999986
20
90.200000000000017
10
-14.799999999999986
20
69.800000000000026
10
-20.000000000000021
20
69.800000000000026
10
-20.000000000000021
20
70.200000000000017
10
-15.199999999999987
20
70.200000000000017
10
-15.199999999999987
20
89.800000000000026
0
LWPOLYLINE
5
118
100
AcDbEntity
8
0
100
AcDbPolyline
90
8
70
1
43
0.0
10
89.800000000000011
20
-19.999999999999989
10
89.800000000000011
20
-15.199999999999989
10
70.199999999999989
20
-15.199999999999989
10
70.199999999999989
20
-19.999999999999989
10
69.800000000000011
20
-19.999999999999989
10
69.800000000000011
20
-14.799999999999988
10
90.199999999999989
20
-14.799999999999988
10
90.199999999999989
20
-19.999999999999989
0
CIRCLE
5
119
100
AcDbEntity
8
0
100
AcDbCircle
10
16.970562748477146
20
-35.355339059327406
30
0
40
2.2999999999999998
210
0
220
0
230
1
0
CIRCLE
5
120
100
AcDbEntity
8
0
100
AcDbCircle
10
16.970562748477146
20
-35.355339059327406
30
0
40
2.7000000000000002
210
0
220
-0
230
1
0
ENDSEC
0
SECTION
2
OBJECTS
0
DICTIONARY
5
C
100
AcDbDictionary
3
ACAD_GROUP
350
D
3
ACAD_MLINESTYLE
350
17
0
DICTIONARY
5
D
100
AcDbDictionary
0
DICTIONARY
5
1A
330
C
100
AcDbDictionary
0
DICTIONARY
5
17
100
AcDbDictionary
0
ENDSEC
0
EOF
